HIERARCHY
ROOT Hips
{
    OFFSET 0.000000 0.000000 0.000000
    CHANNELS 6 Xposition Yposition Zposition Zrotation Xrotation Yrotation
    JOINT Spine
    {
        OFFSET -0.000000 14.517291 0.000000
        CHANNELS 3 Zrotation Xrotation Yrotation
        JOINT Spine1
        {
            OFFSET -0.000000 37.558300 0.000000
            CHANNELS 3 Zrotation Xrotation Yrotation
            JOINT Neck
            {
                OFFSET -0.000000 37.404057 3.400369
                CHANNELS 3 Zrotation Xrotation Yrotation
                JOINT Head
                {
                    OFFSET -0.000000 24.785618 -3.540803
                    CHANNELS 3 Zrotation Xrotation Yrotation
                    End Site
                    {
                        OFFSET -0.000000 35.408028 0.000000
                    }
                }
            }
            JOINT LeftShoulder
            {
                OFFSET 6.992933 33.973492 -0.192664
                CHANNELS 3 Zrotation Xrotation Yrotation
                JOINT LeftArm
                {
                    OFFSET 21.527611 0.000000 0.000000
                    CHANNELS 3 Zrotation Xrotation Yrotation
                    JOINT LeftForeArm
                    {
                        OFFSET 56.353916 0.000000 0.000000
                        CHANNELS 3 Zrotation Xrotation Yrotation
                        JOINT LeftHand
                        {
                            OFFSET 47.774071 0.000000 0.000000
                            CHANNELS 3 Zrotation Xrotation Yrotation
                            End Site
                            {
                                OFFSET 26.556021 0.000000 0.000000
                            }
                        }
                    }
                }
            }
            JOINT RightShoulder
            {
                OFFSET -7.065357 33.973492 -0.192664
                CHANNELS 3 Zrotation Xrotation Yrotation
                JOINT RightArm
                {
                    OFFSET -21.527611 0.000000 0.000000
                    CHANNELS 3 Zrotation Xrotation Yrotation
                    JOINT RightForeArm
                    {
                        OFFSET -56.353916 0.000000 0.000000
                        CHANNELS 3 Zrotation Xrotation Yrotation
                        JOINT RightHand
                        {
                            OFFSET -47.774071 0.000000 0.000000
                            CHANNELS 3 Zrotation Xrotation Yrotation
                            End Site
                            {
                                OFFSET -26.556021 0.000000 0.000000
                            }
                        }
                    }
                }
            }
        }
    }
    JOINT LeftUpLeg
    {
        OFFSET 17.704014 0.000000 0.000000
        CHANNELS 3 Zrotation Xrotation Yrotation
        JOINT LeftLeg
        {
            OFFSET -0.000000 -81.181816 0.000000
            CHANNELS 3 Zrotation Xrotation Yrotation
            JOINT LeftFoot
            {
                OFFSET -0.000000 -62.821102 0.000000
                CHANNELS 3 Zrotation Xrotation Yrotation
                JOINT LeftToeBase
                {
                    OFFSET -0.000000 -11.507608 26.556021
                    CHANNELS 3 Zrotation Xrotation Yrotation
                    End Site
                    {
                        OFFSET -0.000000 0.000000 7.081605
                    }
                }
            }
        }
    }
    JOINT RightUpLeg
    {
        OFFSET -17.704014 0.000000 0.000000
        CHANNELS 3 Zrotation Xrotation Yrotation
        JOINT RightLeg
        {
            OFFSET -0.000000 -81.181816 0.000000
            CHANNELS 3 Zrotation Xrotation Yrotation
            JOINT RightFoot
            {
                OFFSET -0.000000 -62.821102 0.000000
                CHANNELS 3 Zrotation Xrotation Yrotation
                JOINT RightToeBase
                {
                    OFFSET -0.000000 -11.507608 26.556021
                    CHANNELS 3 Zrotation Xrotation Yrotation
                    End Site
                    {
                        OFFSET -0.000000 0.000000 7.081605
                    }
                }
            }
        }
    }
}
MOTION
Frames:    8
Frame Time:    0.008333
12.560522    155.320572    -116.008316    -4.009754    -3.346459    28.019245    -0.604009    -3.368722    -6.530574    -0.763024    5.193171    -2.135278    6.483645    -12.181117    -11.270156    4.764071    11.433543    -13.204906    10.295750    7.314000    -29.528675    -29.291758    25.585684    -49.783360    -4.500059    -19.604269    -100.738731    13.211887    -24.798677    -1.484514    -13.833521    -6.489224    -4.723394    33.726025    -13.106686    79.204239    -10.382442    -16.744350    59.554878    -3.317597    -11.610116    22.706013    18.891117    2.039578    1.543889    -12.111995    31.897396    -17.088991    2.090769    -30.520744    47.136879    0.000000    0.000000    0.000000    -10.016822    -23.775854    -2.324596    7.854059    19.854891    -12.388950    3.842843    11.075356    -13.512655    0.000000    0.000000    0.000000    
12.399172    155.379181    -115.964195    -4.048966    -3.438932    28.749727    -0.658101    -3.389414    -6.489301    -0.739365    5.169519    -2.122222    6.197237    -11.928700    -11.585601    5.075736    11.203541    -13.423768    10.273561    7.262414    -29.393078    -29.318562    25.635706    -49.971310    -4.719242    -19.061769    -101.020317    13.378622    -24.533222    -1.367333    -13.791625    -6.400371    -4.727723    33.697521    -13.106125    79.058121    -10.850766    -16.940056    58.796024    -3.091800    -11.598723    22.870140    19.104773    1.740756    1.057782    -12.086496    31.967922    -17.267126    2.017686    -30.413740    47.056347    0.000000    0.000000    0.000000    -10.117753    -23.503275    -2.797927    7.832001    19.805973    -12.494237    3.866323    10.985781    -13.648445    0.000000    0.000000    0.000000    
12.238748    155.444077    -115.895393    -4.089299    -3.550820    29.491590    -0.703077    -3.423173    -6.446389    -0.725566    5.181319    -2.108013    5.893369    -11.740119    -12.009718    5.378111    11.073392    -13.760251    10.239886    7.183642    -29.279623    -29.286116    25.751842    -50.127258    -4.999175    -18.560923    -101.390129    13.726275    -24.385574    -1.212112    -13.750430    -6.341701    -4.738658    33.364365    -13.114890    78.615509    -11.191426    -17.280159    58.333332    -2.902167    -11.780064    22.955275    19.340290    1.479069    0.587201    -12.064579    31.987921    -17.461452    1.914252    -30.309917    46.958561    0.000000    0.000000    0.000000    -10.207482    -23.194599    -3.239874    7.834363    19.732317    -12.676166    3.877875    10.885072    -13.744748    0.000000    0.000000    0.000000    
12.090865    155.504578    -115.846344    -4.122585    -3.645521    30.216053    -0.724294    -3.438561    -6.383550    -0.749666    5.137527    -2.086063    5.497646    -11.532950    -12.468255    5.815839    10.986400    -14.105480    10.214523    7.161983    -29.150782    -29.281351    25.760206    -50.267517    -5.305655    -17.942720    -101.736359    13.707082    -24.172489    -1.218889    -13.705430    -6.306869    -4.755166    33.130638    -13.189176    78.051048    -11.357282    -17.330828    58.136101    -3.190449    -11.818707    22.810825    19.546745    1.215723    0.129749    -12.024325    31.989019    -17.642921    1.793454    -30.215431    46.828243    0.000000    0.000000    0.000000    -10.316308    -22.914549    -3.657737    7.850001    19.673876    -12.854667    3.895849    10.791369    -13.853452    0.000000    0.000000    0.000000    
11.937643    155.560074    -115.768837    -4.148952    -3.770326    30.982134    -0.738819    -3.508960    -6.350507    -0.829976    5.228522    -2.070565    5.227877    -11.290148    -12.889331    6.187901    10.777365    -14.438480    10.225032    7.072152    -29.026665    -29.234032    25.829565    -50.387516    -5.513054    -17.423552    -102.056305    13.633782    -23.941282    -1.194935    -13.590379    -6.290937    -4.702651    32.986794    -13.336561    77.563049    -11.487632    -17.418627    57.809162    -3.126423    -11.870183    22.946894    19.776529    0.975706    -0.366983    -11.985182    31.978058    -17.835754    1.679844    -30.115524    46.669708    0.000000    0.000000    0.000000    -10.414632    -22.576851    -4.131288    7.853987    19.601397    -12.998070    3.903775    10.660634    -13.957149    0.000000    0.000000    0.000000    
11.793777    155.619400    -115.711212    -4.151996    -3.894348    31.738127    -0.768023    -3.469861    -6.274789    -0.875507    5.182196    -2.043432    4.909912    -11.041040    -13.357657    6.569648    10.590439    -14.809456    10.208505    6.987139    -28.932072    -29.211407    25.964306    -50.473499    -5.488633    -17.052082    -102.305023    12.838025    -23.598753    -1.398299    -13.476982    -6.161601    -4.762888    32.792778    -13.499054    77.160141    -11.633177    -17.581656    57.449265    -3.063978    -11.996971    23.122116    19.962496    0.751011    -0.798861    -11.874071    31.958687    -18.144028    1.571791    -30.014528    46.557579    0.000000    0.000000    0.000000    -10.528892    -22.233858    -4.638470    7.847827    19.522488    -13.170377    3.882535    10.568130    -13.994286    0.000000    0.000000    0.000000    
11.645725    155.689835    -115.632774    -4.169363    -4.014810    32.506226    -0.834556    -3.465969    -6.221427    -0.836096    5.150875    -2.027039    4.517265    -10.784891    -13.855697    6.984466    10.454231    -15.194835    10.116977    6.931848    -28.830013    -29.158192    26.001259    -50.588150    -6.016051    -16.252649    -102.733421    13.634942    -23.484150    -1.254072    -13.447260    -6.156124    -4.763996    32.690117    -13.599196    76.650574    -11.725083    -17.614166    57.153664    -3.018547    -12.013556    23.254227    20.152235    0.502747    -1.258718    -11.771282    31.944407    -18.396250    1.436856    -29.901041    46.447247    0.000000    0.000000    0.000000    -10.619538    -21.886312    -5.136914    7.830730    19.432203    -13.298588    3.903701    10.474821    -14.098934    0.000000    0.000000    0.000000    
11.494546    155.757233    -115.547134    -4.172047    -4.158373    33.269051    -0.897738    -3.423863    -6.110222    -0.823506    5.125976    -1.990242    4.214202    -10.546351    -14.359638    7.323571    10.282541    -15.611101    10.100822    6.869143    -28.768257    -29.108833    26.004519    -50.714951    -6.374808    -15.552982    -103.080116    13.760133    -23.275904    -1.228978    -13.377658    -6.080107    -4.883534    32.602779    -13.750409    76.210068    -11.853171    -17.558821    56.895142    -3.162751    -11.947869    23.153458    20.343637    0.275913    -1.720743    -11.670314    31.937666    -18.685947    1.337899    -29.779108    46.371933    0.000000    0.000000    0.000000    -10.692000    -21.515652    -5.628050    7.803057    19.347876    -13.448626    3.895210    10.364288    -14.157793    0.000000    0.000000    0.000000    
